<svg xmlns="http://www.w3.org/2000/svg" xmlns:xlink="http://www.w3.org/1999/xlink" width="500" zoomAndPan="magnify" viewBox="0 0 375 374.999991" height="500" preserveAspectRatio="xMidYMid meet" version="1.0"><defs><clipPath id="58f50ceaa6"><path d="M 25.371094 25.371094 L 349.628906 25.371094 L 349.628906 349.628906 L 25.371094 349.628906 Z M 25.371094 25.371094 " clip-rule="nonzero"/></clipPath><clipPath id="2df5b0cffe"><path d="M 187.5 25.371094 C 97.960938 25.371094 25.371094 97.960938 25.371094 187.5 C 25.371094 277.039062 97.960938 349.628906 187.5 349.628906 C 277.039062 349.628906 349.628906 277.039062 349.628906 187.5 C 349.628906 97.960938 277.039062 25.371094 187.5 25.371094 Z M 187.5 25.371094 " clip-rule="nonzero"/></clipPath><clipPath id="19209f68e1"><path d="M 128 104 L 259.65625 104 L 259.65625 266.464844 L 128 266.464844 Z M 128 104 " clip-rule="nonzero"/></clipPath></defs><g clip-path="url(#58f50ceaa6)"><g clip-path="url(#2df5b0cffe)"><path fill="#ffffff" d="M 25.371094 25.371094 L 349.628906 25.371094 L 349.628906 349.628906 L 25.371094 349.628906 Z M 25.371094 25.371094 " fill-opacity="1" fill-rule="nonzero"/></g></g><path fill="#000000" d="M 92.941406 98.714844 C 67.871094 123.773438 54.09375 157.085938 54.09375 192.511719 C 54.09375 227.960938 67.871094 261.273438 92.941406 286.34375 C 117.988281 311.414062 151.328125 325.214844 186.773438 325.214844 C 217.585938 325.214844 246.773438 314.746094 270.355469 295.558594 L 295.96875 321.167969 L 290.132812 327.003906 L 367.808594 404.703125 L 398.910156 373.601562 L 321.234375 295.925781 L 315.398438 301.738281 L 289.785156 276.125 C 308.996094 252.542969 319.445312 223.359375 319.445312 192.546875 C 319.445312 157.097656 305.640625 123.785156 280.574219 98.714844 C 228.84375 46.972656 144.671875 46.972656 92.941406 98.714844 Z M 266.226562 113.035156 C 287.46875 134.277344 299.148438 162.496094 299.148438 192.546875 C 299.148438 222.574219 287.457031 250.792969 266.226562 272.03125 C 245.007812 293.25 216.792969 304.945312 186.761719 304.945312 C 156.734375 304.945312 128.496094 293.25 107.277344 272.019531 C 86.035156 250.804688 74.355469 222.585938 74.355469 192.535156 C 74.355469 162.507812 86.046875 134.289062 107.277344 113.046875 C 151.121094 69.226562 222.429688 69.226562 266.226562 113.035156 Z M 266.226562 113.035156 " fill-opacity="1" fill-rule="nonzero"/><path fill="#000000" d="M 89.472656 192.535156 C 89.472656 218.527344 99.609375 242.9375 117.964844 261.320312 C 120.734375 264.085938 125.242188 264.085938 128.011719 261.320312 C 130.777344 258.550781 130.777344 254.042969 128.011719 251.277344 C 112.316406 235.582031 103.691406 214.722656 103.691406 192.535156 C 103.691406 170.324219 112.316406 149.476562 128.011719 133.769531 C 129.40625 132.398438 130.085938 130.574219 130.085938 128.742188 C 130.085938 126.941406 129.40625 125.121094 128.011719 123.714844 C 125.242188 120.945312 120.734375 120.945312 117.964844 123.714844 C 99.609375 142.105469 89.472656 166.542969 89.472656 192.535156 Z M 89.472656 192.535156 " fill-opacity="1" fill-rule="nonzero"/><g clip-path="url(#19209f68e1)"><path fill="#000000" d="M 382.816406 171.621094 C 381.269531 167.886719 376.996094 166.121094 373.277344 167.664062 C 348.558594 177.925781 328.707031 178.550781 313.355469 175.113281 C 312.984375 174.992188 312.609375 174.921875 312.234375 174.867188 C 286.035156 168.578125 273.351562 150.46875 272.488281 149.195312 C 270.246094 145.84375 265.714844 144.941406 262.378906 147.171875 C 259.019531 149.410156 258.105469 153.949219 260.339844 157.308594 C 260.554688 157.640625 273.238281 176.078125 298.835938 185.753906 C 295.535156 195.148438 289.929688 213.199219 288.421875 231.300781 C 288.421875 231.300781 289.9375 231.597656 292.5 232.011719 C 291.25 244.367188 290.929688 253.78125 290.910156 254.671875 C 290.785156 258.710938 293.953125 262.078125 297.980469 262.203125 C 298.054688 262.203125 298.136719 262.210938 298.207031 262.210938 C 302.140625 262.210938 305.375 259.082031 305.5 255.125 C 305.507812 254.914062 305.816406 245.789062 307.003906 233.8125 C 311.105469 234.179688 315.574219 234.453125 320.105469 234.492188 C 328.777344 254.242188 340.429688 264.058594 341.230469 264.714844 C 342.582031 265.820312 344.214844 266.359375 345.832031 266.359375 C 347.953125 266.359375 350.054688 265.441406 351.503906 263.664062 C 354.046875 260.535156 353.578125 255.929688 350.449219 253.375 C 350.304688 253.261719 342.632812 246.765625 335.792969 233.484375 C 339.828125 232.835938 343.550781 231.839844 346.671875 230.367188 C 346.671875 230.367188 339.429688 208.203125 338.9375 191.214844 C 350.867188 190.300781 364.164062 187.28125 378.875 181.175781 C 382.601562 179.632812 384.367188 175.347656 382.816406 171.621094 Z M 249.921875 147.199219 C 246.578125 144.957031 242.050781 145.847656 239.800781 149.1875 C 238.984375 150.398438 226.296875 168.574219 200.046875 174.871094 C 199.664062 174.925781 199.285156 175 198.914062 175.117188 C 183.5625 178.550781 163.71875 177.921875 139.003906 167.664062 C 135.277344 166.117188 131.003906 167.886719 129.464844 171.621094 C 127.917969 175.347656 129.6875 179.632812 133.414062 181.175781 C 151.441406 188.660156 167.363281 191.558594 181.214844 191.558594 C 181.375 191.558594 181.523438 191.535156 181.6875 191.535156 C 182.597656 197.417969 183.621094 206.222656 183.433594 215.515625 C 176.691406 240.636719 162.628906 252.71875 161.804688 253.402344 C 158.703125 255.949219 158.242188 260.542969 160.78125 263.667969 C 162.226562 265.441406 164.324219 266.359375 166.445312 266.359375 C 168.070312 266.359375 169.699219 265.824219 171.054688 264.71875 C 171.992188 263.949219 188.035156 250.421875 196.472656 222.835938 C 198.882812 222.371094 201.394531 222.011719 203.867188 221.851562 C 206.25 239.175781 206.777344 254.847656 206.785156 255.125 C 206.910156 259.078125 210.148438 262.210938 214.078125 262.210938 C 214.152344 262.210938 214.226562 262.207031 214.308594 262.207031 C 218.332031 262.082031 221.496094 258.710938 221.375 254.671875 C 221.34375 253.523438 220.828125 238.164062 218.429688 220.582031 C 218.476562 212.566406 218.410156 196.703125 217.398438 184.160156 C 240.351562 174.1875 251.742188 157.621094 251.949219 157.308594 C 254.167969 153.953125 253.261719 149.441406 249.921875 147.199219 Z M 191.035156 172.820312 C 206.167969 172.820312 218.433594 160.535156 218.433594 145.378906 C 218.433594 130.222656 206.167969 117.9375 191.035156 117.9375 C 175.902344 117.9375 163.636719 130.222656 163.636719 145.378906 C 163.636719 160.535156 175.90625 172.820312 191.035156 172.820312 Z M 304.316406 124.511719 C 304.847656 125.457031 304.71875 126.65625 304.011719 127.484375 C 301.132812 130.828125 299.042969 134.898438 298.046875 139.5625 C 294.757812 154.980469 305.09375 170.140625 320.929688 172.464844 C 335.082031 174.535156 348.699219 164.980469 351.652344 150.96875 C 352.625 146.363281 352.375 141.804688 351.117188 137.59375 C 350.8125 136.5625 351.183594 135.425781 352.042969 134.78125 C 359.851562 128.890625 352.496094 156.234375 380.472656 150.039062 C 363.21875 145.992188 371.773438 130.179688 369.652344 123.792969 C 367.625 117.816406 356.976562 112.503906 347.429688 127.6875 C 347.085938 128.246094 346.308594 128.292969 345.894531 127.785156 C 342.109375 123.175781 336.863281 119.8125 330.582031 118.464844 C 324.347656 117.128906 318.144531 118.039062 312.847656 120.664062 C 312.265625 120.953125 311.578125 120.597656 311.488281 119.949219 C 308.933594 102.210938 297.039062 102.695312 292.75 107.320312 C 288.203125 112.28125 289.550781 130.214844 272.15625 126.839844 C 295.085938 143.933594 299.574219 116.0625 304.316406 124.511719 Z M 304.316406 124.511719 " fill-opacity="1" fill-rule="nonzero"/></g></svg>